{"title":"Max Payne 2008 Unrated 720p BluRay DTS x264 {GPR} Download","uid":10243645,"size":4689102930,"categoryP":"video","categoryS":"hd___movies","magnet":"?xt=urn:btih:5a226ea66549853e3c8e5b5f11447422eacbe738&amp;dn=Max+Payne+2008+Unrated+720p+BluRay+DTS+x264+%7BGPR%7D+Download&amp;tr=udp%3A%2F%2Ftracker.openbittorrent.com%3A80&amp;tr=udp%3A%2F%2Fopen.demonii.com%3A1337&amp;tr=udp%3A%2F%2Ftracker.coppersurfer.tk%3A6969&amp;tr=udp%3A%2F%2Fexodus.desync.com%3A6969","seeders":0,"leechers":0,"uploader":"GamePersia","files":3,"time":1401267928,"description":"Max Payne 2008 Unrated 720p BluRay DTS x264 {GPR} Download &lt;a href=&quot;\nhttp://covers.box3.net/newsimg/dvdmov/max1223834664-frontback-cover.jpg&quot; rel=&quot;nofollow&quot; target=&quot;_NEW&quot;&gt;\nhttp://covers.box3.net/newsimg/dvdmov/max1223834664-frontback-cover.jpg&lt;/a&gt;\nDirector: John Moore\nWriters: Beau Thorne (screenplay), Sam Lake (video game by Remedy Entertainment and 3-D Realms Entertainment)\nStars: Mark Wahlberg, Mila Kunis, Beau Bridges\n\nThree years ago, NYPD detective Max Payne's wife and baby were murdered. Max gets himself transferred to the cold case office where he can continue searching for the killer who got away. He's a loner, but two people reach out to him during a fateful week: Alex, his ex-partner who may have found a clue, and BB, the security chief at the pharmaceutical company where Max's wife worked. Meanwhile, bodies are piling up, some as a result of a drug on the street that is highly addictive and, for many who take it, brings hideous hallucinations. When one of the bodies is a woman Payne was the last to see alive, her sister comes looking for him armed to the teeth; Max must move fast.\n\nGeneral\n\nFormat                                   : Matroska\nFormat version                           : Version 4 / Version 2\nFile size                                : 4.37 GiB\nDuration                                 : 1h 42mn\nOverall bit rate                         : 6 071 Kbps\n\nVideo\nID                                       : 2\nFormat                                   : AVC\nFormat/Info                              : Advanced Video Codec\nFormat profile                           : &lt;a class=&quot;__cf_email__&quot; href=&quot;/cdn-cgi/l/email-protection&quot; data-cfemail=&quot;652d0c020d2529514b54&quot;&gt;[email&amp;#160;protected]&lt;/a&gt;&lt;script data-cfhash='f9e31' type=&quot;text/javascript&quot;&gt;\n/* &lt;![CDATA[ */!function(){try{var t=&quot;currentScript&quot;in document?document.currentScript:function(){for(var t=document.getElementsByTagName(&quot;script&quot;),e=t.length;e--;)if(t[e].getAttribute(&quot;data-cfhash&quot;))return t[e]}();if(t&amp;&amp;t.previousSibling){var e,r,n,i,c=t.previousSibling,a=c.getAttribute(&quot;data-cfemail&quot;);if(a){for(e=&quot;&quot;,r=parseInt(a.substr(0,2),16),n=2;a.length-n;n+=2)i=parseInt(a.substr(n,2),16)^r,e+=String.fromCharCode(i);e=document.createTextNode(e),c.parentNode.replaceChild(e,c)}t.parentNode.removeChild(t);}}catch(u){}}()/* ]]&gt; */&lt;/script&gt;\nFormat settings, CABAC                   : Yes\nFormat settings, ReFrames                : 8 frames\nCodec ID                                 : V_MPEG4/ISO/AVC\nDuration                                 : 1h 42mn\nBit rate                                 : 5 315 Kbps\nWidth                                    : 1 280 pixels\nHeight                                   : 532 pixels\nDisplay aspect ratio                     : 2.40:1\nFrame rate mode                          : Constant\nFrame rate                               : 23.976 fps\nColor space                              : YUV\nChroma subsampling                       : 4:2:0\nBit depth                                : 8 bits\nScan type                                : Progressive\nBits/(Pixel*Frame)                       : 0.326\nStream size                              : 3.74 GiB (86%)\n\nAudio\nID                                       : 3\nFormat                                   : DTS\nFormat/Info                              : Digital Theater Systems\nMode                                     : 16\nFormat settings, Endianness              : Big\nCodec ID                                 : A_DTS\nDuration                                 : 1h 42mn\nBit rate mode                            : Constant\nBit rate                                 : 755 Kbps\nChannel(s)                               : 6 channels\nChannel positions                        : Front: L C R, Side: L R, LFE\nSampling rate                            : 48.0 KHz\nBit depth                                : 24 bits\nCompression mode                         : Lossy\nStream size                              : 556 MiB (12%)\nTitle                                    : GamePersia\nDefault                                  : Yes\nForced                                   : No\n\nText\nID                                       : 1\nFormat                                   : UTF-8\nCodec ID                                 : S_TEXT/UTF8\nCodec ID/Info                            : UTF-8 Plain Text\nTitle                                    : GamePersia\nDefault                                  : Yes\nForced                                   : No\n &lt;a href=&quot;\nhttp://i.imgur.com/wm350nA.png&quot; rel=&quot;nofollow&quot; target=&quot;_NEW&quot;&gt;\nhttp://i.imgur.com/wm350nA.png&lt;/a&gt; &lt;a href=&quot;\nhttp://i.imgur.com/CVGxcGa.png&quot; rel=&quot;nofollow&quot; target=&quot;_NEW&quot;&gt;\nhttp://i.imgur.com/CVGxcGa.png&lt;/a&gt; &lt;a href=&quot;\nhttp://i.imgur.com/1fje94Z.png&quot; rel=&quot;nofollow&quot; target=&quot;_NEW&quot;&gt;\nhttp://i.imgur.com/1fje94Z.png&lt;/a&gt;\n\nSeed Atleast 445 Mb To Aid The Files For Future Downloads Also\nIf You Like Our Work For You, Appreciate Us By Writing A Comment","torrent":{"xt":"urn:btih:5a226ea66549853e3c8e5b5f11447422eacbe738","amp;dn":"Max+Payne+2008+Unrated+720p+BluRay+DTS+x264+%7BGPR%7D+Download","amp;tr":["udp%3A%2F%2Ftracker.openbittorrent.com%3A80","udp%3A%2F%2Fopen.demonii.com%3A1337","udp%3A%2F%2Ftracker.coppersurfer.tk%3A6969","udp%3A%2F%2Fexodus.desync.com%3A6969"],"infoHash":"5a226ea66549853e3c8e5b5f11447422eacbe738","infoHashBuffer":{"type":"Buffer","data":[90,34,110,166,101,73,133,62,60,142,91,95,17,68,116,34,234,203,231,56]},"announce":[],"urlList":[]}}